<!-- Generated by IcoMoon.io -->
<svg version="1.1" xmlns="http://www.w3.org/2000/svg" width="24" height="28" viewBox="0 0 24 28">
<title>git-square</title>
<path d="M9.094 20.438c0 0.844-0.766 1.031-1.453 1.031-0.672 0-1.672-0.109-1.672-0.984 0-0.859 0.844-1 1.531-1 0.656 0 1.594 0.109 1.594 0.953zM8.531 13.156c0 0.781-0.313 1.328-1.156 1.328-0.859 0-1.203-0.5-1.203-1.313s0.313-1.406 1.203-1.406c0.797 0 1.156 0.656 1.156 1.391zM11.125 11.984v-1.953c-0.672 0.25-1.391 0.453-2.109 0.453-0.516-0.297-1.109-0.453-1.719-0.453-1.781 0-3.187 1.313-3.187 3.125 0 0.969 0.641 2.312 1.609 2.641v0.047c-0.5 0.219-0.594 0.828-0.594 1.328 0 0.516 0.187 0.938 0.641 1.203v0.047c-1.062 0.344-1.766 1.016-1.766 2.172 0 1.984 1.891 2.547 3.547 2.547 2 0 3.5-0.734 3.5-2.938 0-1.563-1.422-2.031-2.719-2.266-0.438-0.078-1.188-0.391-1.188-0.938 0-0.516 0.281-0.734 0.766-0.812 1.594-0.313 2.609-1.547 2.609-3.187 0-0.281-0.063-0.547-0.156-0.812 0.25-0.063 0.516-0.125 0.766-0.203zM12.047 18.531h2.141c-0.031-0.422-0.031-0.859-0.031-1.281v-6.047c0-0.359 0-0.719 0.031-1.078h-2.141c0.047 0.359 0.047 0.75 0.047 1.109v6.125c0 0.391 0 0.781-0.047 1.172zM20 18.281v-1.891c-0.313 0.219-0.688 0.328-1.062 0.328-0.703 0-0.828-0.703-0.828-1.281v-3.516h0.812c0.281 0 0.547 0.031 0.828 0.031v-1.828h-1.641c0-0.531-0.031-1.062 0.047-1.594h-2.188c0.047 0.281 0.063 0.562 0.063 0.859v0.734h-0.938v1.828c0.187-0.016 0.375-0.047 0.578-0.047 0.109 0 0.234 0.016 0.359 0.016v0.031h-0.031v3.391c0 1.687 0.25 3.313 2.312 3.313 0.578 0 1.172-0.094 1.687-0.375zM14.438 7.25c0-0.734-0.547-1.422-1.313-1.422s-1.328 0.672-1.328 1.422c0 0.734 0.578 1.391 1.328 1.391s1.313-0.672 1.313-1.391zM24 6.5v15c0 2.484-2.016 4.5-4.5 4.5h-15c-2.484 0-4.5-2.016-4.5-4.5v-15c0-2.484 2.016-4.5 4.5-4.5h15c2.484 0 4.5 2.016 4.5 4.5z"></path>
</svg>
